<svg id="Flat" height="512" viewBox="0 0 512 512" width="512" xmlns="http://www.w3.org/2000/svg"><rect fill="#e9eef2" height="464" rx="32" width="256" x="136" y="24"/><path d="m392 56h-256a32 32 0 0 1 32-32h192a32 32 0 0 1 32 32z" fill="#9aa3a8"/><path d="m392 456a32 32 0 0 1 -32 32h-192a32 32 0 0 1 -32-32z" fill="#9aa3a8"/><circle cx="112" cy="176" fill="#eba72e" r="72"/><circle cx="144" cy="176" fill="#f7b030" r="72"/><path d="m232 130.75v90.5a72 72 0 1 1 0-90.5z" fill="#ffb632"/><g fill="#1261a0"><circle cx="280" cy="168" r="8"/><circle cx="312" cy="168" r="8"/><circle cx="344" cy="168" r="8"/></g><path d="m232 272a8 8 0 0 1 -8-8v-176a8 8 0 0 1 16 0v176a8 8 0 0 1 -8 8z" fill="#dadcde"/><path d="m296 264h176v144h-176z" fill="#ffb632"/><circle cx="184" cy="344" fill="#1261a0" r="8"/><circle cx="216" cy="344" fill="#1261a0" r="8"/><circle cx="248" cy="344" fill="#1261a0" r="8"/><path d="m296 264h176v32h-176z" fill="#d46109"/><path d="m408 360-24-16-24 16v-96h48z" fill="#d13330"/><path d="m296 432a8 8 0 0 1 -8-8v-176a8 8 0 0 1 16 0v176a8 8 0 0 1 -8 8z" fill="#dadcde"/><path d="m176 168a8 8 0 1 1 8-8 8 8 0 0 0 16 0 24.039 24.039 0 0 0 -16-22.624v-1.376a8 8 0 0 0 -16 0v1.376a24 24 0 0 0 8 46.624 8 8 0 1 1 -8 8 8 8 0 0 0 -16 0 24.039 24.039 0 0 0 16 22.624v1.376a8 8 0 0 0 16 0v-1.376a24 24 0 0 0 -8-46.624z" fill="#bd620e"/></svg>